<?xml version="1.0" encoding="utf-8"?>
<!-- Generator: Adobe Illustrator 27.4.0, SVG Export Plug-In . SVG Version: 6.00 Build 0)  -->
<svg version="1.1" id="Layer_1" xmlns="http://www.w3.org/2000/svg" xmlns:xlink="http://www.w3.org/1999/xlink" x="0px" y="0px"
	 width="140.3px" height="43.4px" viewBox="0 0 140.3 43.4" style="enable-background:new 0 0 140.3 43.4;" xml:space="preserve">
<style type="text/css">
	.st0{fill:#291B3C;}
	.st1{fill:#FFFFFF;}
	.st2{fill:#376478;}
	.st3{fill:none;stroke:#FFFFFF;stroke-miterlimit:10;}
	.st4{fill:#AD8893;}
</style>
<g>
	<path class="st0" d="M50.2,29.4v-9.1h-1.4v-1.8h1.4v-2.6c0-1,0.3-1.9,1-2.6c0.7-0.7,1.5-1,2.6-1h0.9v1.8h-0.9
		c-0.5,0-0.8,0.2-1.1,0.5s-0.4,0.7-0.4,1.2v2.6h2.4v1.8h-2.4v9.1h-2.1V29.4z"/>
	<path class="st0" d="M52.5,14.4c-0.3,0.4-0.5,0.8-0.5,1.4v2.9h2.4V20H52v9.1h-1.5V20h-1.4v-1.4h1.4v-2.9c0-1,0.3-1.8,0.9-2.4
		c0.6-0.6,1.4-0.9,2.4-0.9h0.6v1.4h-0.6C53.3,13.8,52.8,14,52.5,14.4z"/>
	<path class="st0" d="M60.7,29.7c-1,0-2-0.3-2.8-0.8s-1.5-1.2-2-2.1s-0.7-1.9-0.7-3s0.2-2.1,0.7-3s1.1-1.6,1.9-2.1
		c0.8-0.5,1.8-0.8,2.8-0.8s2,0.3,2.8,0.8c0.8,0.5,1.5,1.2,2,2.1s0.7,1.9,0.7,3s-0.2,2.1-0.7,3s-1.1,1.6-1.9,2.1
		C62.7,29.5,61.7,29.7,60.7,29.7z M60.6,19.9c-0.7,0-1.3,0.2-1.8,0.5s-0.9,0.8-1.2,1.4s-0.4,1.3-0.4,2.1c0,0.8,0.2,1.5,0.4,2.1
		c0.3,0.6,0.7,1.1,1.2,1.4s1.1,0.5,1.8,0.5s1.3-0.2,1.8-0.5s0.9-0.8,1.2-1.4s0.4-1.3,0.4-2.1s-0.2-1.5-0.4-2.1
		c-0.3-0.6-0.7-1.1-1.2-1.4C61.9,20,61.3,19.9,60.6,19.9z"/>
	<path class="st0" d="M58,28.8c-0.8-0.5-1.4-1.2-1.9-2c-0.5-0.9-0.7-1.8-0.7-2.9s0.2-2,0.7-2.9c0.4-0.8,1.1-1.5,1.8-2
		c0.8-0.5,1.7-0.7,2.7-0.7s1.9,0.2,2.7,0.7s1.4,1.1,1.9,2s0.7,1.8,0.7,2.9s-0.2,2-0.7,2.9c-0.4,0.9-1.1,1.5-1.8,2
		c-0.8,0.5-1.7,0.7-2.7,0.7C59.7,29.5,58.8,29.3,58,28.8z M62.5,27.6c0.6-0.4,1-0.9,1.3-1.5s0.5-1.4,0.5-2.2c0-0.8-0.2-1.5-0.5-2.2
		c-0.3-0.6-0.8-1.1-1.3-1.5c-0.6-0.4-1.2-0.5-1.9-0.5s-1.3,0.2-1.9,0.5c-0.6,0.4-1,0.9-1.3,1.5s-0.5,1.4-0.5,2.2
		c0,0.8,0.2,1.6,0.5,2.2s0.7,1.1,1.3,1.5s1.2,0.5,1.9,0.5C61.3,28.1,62,27.9,62.5,27.6z"/>
	<path class="st0" d="M72.3,29.7c-0.8,0-1.5-0.2-2.1-0.5c-0.7-0.3-1.2-0.8-1.6-1.4S68,26.4,68,25.6v-7.3h2V25c0,2,0.8,2.9,2.6,2.9
		c1,0,1.7-0.3,2.2-1.1c0.5-0.7,0.8-1.7,0.8-3v-5.5h2v11h-2v-1.2c-0.3,0.4-0.7,0.7-1.1,1C73.8,29.5,73.1,29.7,72.3,29.7z"/>
	<path class="st0" d="M77.3,18.6v10.5h-1.5v-1.8c-0.4,0.7-0.8,1.2-1.4,1.6s-1.3,0.6-2.1,0.6c-0.7,0-1.4-0.2-2-0.5s-1.1-0.7-1.5-1.3
		c-0.4-0.6-0.6-1.3-0.6-2.1v-7h1.5V25c0,2.1,0.9,3.1,2.8,3.1c1.1,0,1.9-0.4,2.4-1.1c0.5-0.8,0.8-1.8,0.8-3.1v-5.3
		C75.7,18.6,77.3,18.6,77.3,18.6z"/>
	<path class="st0" d="M79.9,29.4v-11h2v1.5c0.3-0.5,0.7-0.9,1.2-1.2c0.7-0.5,1.4-0.7,2.2-0.7c0.4,0,0.8,0.1,1.1,0.2h0.2v1.9L86.2,20
		c-0.3-0.1-0.6-0.2-0.9-0.2c-0.6,0-1.2,0.2-1.7,0.5s-0.9,0.8-1.3,1.5c-0.3,0.6-0.5,1.4-0.5,2.3v5.3C81.8,29.4,79.9,29.4,79.9,29.4z"
		/>
	<path class="st0" d="M86.3,18.4v1.4c-0.3-0.1-0.7-0.2-1-0.2c-0.6,0-1.2,0.2-1.8,0.5c-0.6,0.4-1,0.9-1.3,1.6s-0.5,1.5-0.5,2.4v5
		h-1.5V18.6h1.5v2.1c0.4-0.8,0.9-1.4,1.5-1.8s1.3-0.7,2.1-0.7C85.6,18.3,86,18.3,86.3,18.4z"/>
	<path class="st0" d="M93,29.7c-0.8,0-1.5-0.2-2.2-0.5c-0.5-0.3-0.9-0.6-1.3-1v1.2h-2V12.6h2v7c0.4-0.4,0.8-0.7,1.3-1
		c0.7-0.4,1.4-0.5,2.2-0.5c1,0,2,0.3,2.8,0.8s1.5,1.2,1.9,2.1c0.5,0.9,0.7,1.9,0.7,3s-0.2,2.1-0.7,3s-1.1,1.6-2,2.1
		C94.9,29.5,94,29.7,93,29.7z M93,19.9c-0.7,0-1.3,0.2-1.8,0.5s-0.9,0.8-1.2,1.4c-0.3,0.6-0.4,1.3-0.4,2.1s0.2,1.5,0.4,2.1
		c0.3,0.6,0.7,1.1,1.2,1.4s1.1,0.5,1.8,0.5c0.7,0,1.3-0.2,1.8-0.5s0.9-0.8,1.2-1.4c0.3-0.6,0.4-1.3,0.4-2.1c0-0.8-0.2-1.5-0.4-2.1
		c-0.3-0.6-0.7-1.1-1.2-1.4C94.3,20,93.7,19.9,93,19.9z"/>
	<path class="st0" d="M95.7,19c0.8,0.5,1.4,1.1,1.8,2c0.4,0.8,0.7,1.8,0.7,2.9S98,26,97.5,26.8c-0.5,0.9-1.1,1.5-1.9,2
		s-1.7,0.7-2.7,0.7c-0.8,0-1.4-0.2-2.1-0.5c-0.6-0.3-1.2-0.8-1.6-1.4v1.6h-1.5V12.8h1.5v7.4c0.4-0.6,1-1.1,1.6-1.4s1.3-0.5,2.1-0.5
		C94,18.3,94.9,18.5,95.7,19z M94.9,27.6c0.6-0.4,1-0.9,1.3-1.5s0.5-1.4,0.5-2.2c0-0.8-0.2-1.5-0.5-2.2c-0.3-0.6-0.8-1.1-1.3-1.5
		c-0.6-0.4-1.2-0.5-1.9-0.5c-0.7,0-1.4,0.2-1.9,0.5c-0.6,0.4-1,0.9-1.3,1.5s-0.5,1.4-0.5,2.2c0,0.8,0.2,1.5,0.5,2.2
		c0.3,0.6,0.8,1.1,1.3,1.5c0.6,0.4,1.2,0.5,1.9,0.5C93.7,28.1,94.3,27.9,94.9,27.6z"/>
	<path class="st0" d="M105,29.7c-1.1,0-2-0.3-2.8-0.8s-1.5-1.2-2-2.1s-0.7-1.9-0.7-3s0.2-2.1,0.7-3s1.1-1.6,1.9-2.1s1.8-0.8,2.8-0.8
		s1.9,0.2,2.7,0.7c0.8,0.5,1.4,1.2,1.9,2s0.7,1.8,0.7,2.8c0,0.3,0,0.5,0,0.7v0.2h-8.6c0.1,0.9,0.4,1.7,1,2.4
		c0.6,0.7,1.4,1.1,2.5,1.1c0.9,0,1.6-0.2,2.1-0.5c0.6-0.3,1-0.8,1.3-1.3l0.1-0.2l1.6,1.1l-0.1,0.2c-0.5,0.8-1.2,1.5-2,1.9
		C107.1,29.5,106.1,29.7,105,29.7z M108.1,22.7c-0.2-0.9-0.5-1.6-1-2.1s-1.3-0.8-2.2-0.8c-0.9,0-1.7,0.3-2.2,0.9
		c-0.5,0.5-0.9,1.2-1.1,2H108.1z"/>
	<path class="st0" d="M107.5,19c0.8,0.5,1.4,1.1,1.8,1.9s0.7,1.7,0.7,2.7c0,0.3,0,0.5,0,0.7h-8.7c0.1,1.1,0.4,2,1.1,2.8
		c0.6,0.8,1.5,1.1,2.6,1.1c0.9,0,1.6-0.2,2.2-0.5s1.1-0.8,1.4-1.4l1.2,0.8c-0.5,0.8-1.1,1.4-2,1.8c-0.8,0.4-1.8,0.7-2.9,0.7
		c-1,0-1.9-0.2-2.7-0.7c-0.8-0.5-1.4-1.1-1.9-2s-0.7-1.8-0.7-2.9s0.2-2,0.7-2.9c0.4-0.9,1.1-1.5,1.8-2c0.8-0.5,1.7-0.7,2.7-0.7
		C105.8,18.3,106.7,18.5,107.5,19z M108.4,22.9c-0.1-1.1-0.5-1.9-1.1-2.5c-0.6-0.5-1.4-0.8-2.4-0.8s-1.8,0.3-2.4,0.9s-1,1.4-1.2,2.4
		H108.4z"/>
	<path class="st0" d="M112.8,29.4v-11h2v11H112.8z M113.8,16.8c-0.4,0-0.8-0.1-1-0.4c-0.3-0.3-0.4-0.6-0.4-1s0.1-0.7,0.4-1
		s0.6-0.4,1-0.4s0.7,0.1,1,0.4c0.3,0.3,0.4,0.6,0.4,1s-0.1,0.7-0.4,1C114.5,16.7,114.2,16.8,113.8,16.8z"/>
	<path class="st0" d="M112.9,16.2c-0.2-0.2-0.3-0.5-0.3-0.9c0-0.3,0.1-0.6,0.3-0.8c0.2-0.2,0.5-0.3,0.9-0.3c0.3,0,0.6,0.1,0.9,0.3
		c0.2,0.2,0.4,0.5,0.4,0.9c0,0.3-0.1,0.6-0.4,0.9c-0.2,0.2-0.5,0.4-0.9,0.4C113.4,16.6,113.1,16.5,112.9,16.2z M113,29.1V18.6h1.5
		v10.5H113z"/>
	<path class="st0" d="M125.5,29.4v-6.6c0-2-0.8-2.9-2.6-2.9c-1,0-1.7,0.3-2.2,1.1c-0.5,0.7-0.8,1.7-0.8,3v5.5h-2v-11h2v1.2
		c0.3-0.4,0.7-0.7,1.1-1c0.6-0.4,1.4-0.6,2.2-0.6c0.8,0,1.5,0.2,2.1,0.5c0.7,0.3,1.2,0.8,1.6,1.4s0.6,1.4,0.6,2.2v7.3h-2V29.4z"/>
	<path class="st0" d="M125.3,18.7c0.6,0.3,1.1,0.7,1.5,1.3c0.4,0.6,0.6,1.3,0.6,2.1v7h-1.5v-6.4c0-2.1-0.9-3.1-2.8-3.1
		c-1.1,0-1.9,0.4-2.4,1.1c-0.5,0.8-0.8,1.8-0.8,3.1v5.3h-1.5V18.6h1.5v1.8c0.4-0.7,0.8-1.2,1.4-1.6s1.3-0.6,2.1-0.6
		C124,18.3,124.6,18.4,125.3,18.7z"/>
	<path class="st0" d="M130.8,33.9V32h4.6c0.9,0,1.5-0.3,2.1-0.9c0.5-0.6,0.8-1.4,0.8-2.4v-0.5c-0.4,0.4-0.8,0.7-1.3,1
		c-0.7,0.4-1.4,0.5-2.2,0.5c-1,0-2-0.3-2.8-0.8s-1.5-1.2-2-2.1s-0.7-1.9-0.7-3s0.2-2.1,0.7-3s1.1-1.6,1.9-2.1
		c0.8-0.5,1.8-0.8,2.8-0.8c0.8,0,1.5,0.2,2.2,0.5c0.5,0.3,0.9,0.6,1.3,1v-1.2h2v10.4c0,1-0.2,1.9-0.6,2.6c-0.4,0.8-1,1.4-1.7,1.8
		c-0.7,0.4-1.6,0.7-2.5,0.7h-4.6V33.9z M134.8,19.9c-0.7,0-1.3,0.2-1.8,0.5s-0.9,0.8-1.2,1.4s-0.4,1.3-0.4,2.1
		c0,0.8,0.2,1.5,0.4,2.1c0.3,0.6,0.7,1.1,1.2,1.4s1.1,0.5,1.8,0.5s1.3-0.2,1.8-0.5s0.9-0.8,1.2-1.4s0.4-1.3,0.4-2.1
		s-0.2-1.5-0.4-2.1c-0.3-0.6-0.7-1.1-1.2-1.4C136.1,20,135.5,19.9,134.8,19.9z"/>
	<path class="st0" d="M140.1,18.6v10.1c0,0.9-0.2,1.8-0.6,2.5c-0.4,0.7-0.9,1.3-1.6,1.7c-0.7,0.4-1.5,0.6-2.4,0.6h-4.4v-1.4h4.4
		c0.9,0,1.7-0.3,2.2-1c0.6-0.7,0.9-1.5,0.9-2.5v-1.1c-0.4,0.6-1,1.1-1.6,1.4s-1.3,0.5-2.1,0.5c-1,0-1.9-0.2-2.7-0.7s-1.4-1.1-1.9-2
		s-0.7-1.8-0.7-2.9s0.2-2,0.7-2.9c0.4-0.8,1.1-1.5,1.8-2c0.8-0.5,1.7-0.7,2.7-0.7c0.8,0,1.5,0.2,2.1,0.5s1.2,0.8,1.6,1.4v-1.6h1.6
		V18.6z M136.8,27.6c0.6-0.4,1-0.9,1.3-1.5s0.5-1.4,0.5-2.2c0-0.8-0.2-1.5-0.5-2.2c-0.3-0.6-0.8-1.1-1.3-1.5
		c-0.6-0.4-1.2-0.5-1.9-0.5s-1.3,0.2-1.9,0.5c-0.6,0.4-1,0.9-1.3,1.5s-0.5,1.4-0.5,2.2c0,0.8,0.2,1.6,0.5,2.2s0.7,1.1,1.3,1.5
		s1.2,0.5,1.9,0.5C135.5,28.1,136.2,27.9,136.8,27.6z"/>
</g>
<g>
	<path class="st1" d="M42.7,21.7c0-5.7-3.1-10.6-7.7-13.3c-2.6-4.6-7.6-7.7-13.3-7.7C16,0.7,11.1,3.9,8.5,8.5
		C3.8,11.1,0.7,16,0.7,21.7S3.8,32.3,8.4,35c2.6,4.6,7.6,7.7,13.3,7.7S32.3,39.6,35,35C39.6,32.4,42.7,27.4,42.7,21.7z"/>
	<path class="st1" d="M42.7,21.7c0-5.7-3.1-10.6-7.7-13.3c-2.6-4.6-7.6-7.7-13.3-7.7C16,0.7,11.1,3.9,8.5,8.5
		C3.8,11.1,0.7,16,0.7,21.7S3.8,32.3,8.4,35c2.6,4.6,7.6,7.7,13.3,7.7S32.3,39.6,35,35C39.6,32.4,42.7,27.4,42.7,21.7z M21.7,3
		c3.6,0,6.9,1.5,9.3,3.9c-1.1-0.3-2.3-0.4-3.6-0.4c-2,0-4,0.4-5.7,1.1C19.9,6.9,18,6.5,16,6.5c-1.2,0-2.4,0.2-3.6,0.4
		C14.8,4.5,18.1,3,21.7,3z M34.7,16c0,1-0.1,2-0.4,3c-1.3-2-3.1-3.6-5.1-4.7c-1.2-2.1-2.8-3.8-4.7-5.1c1-0.2,1.9-0.4,3-0.4
		c2.1,0,4.1,0.5,5.9,1.4C34.2,11.9,34.7,13.9,34.7,16z M34.7,27.5c0,2.1-0.5,4.1-1.4,5.9c-1.8,0.9-3.8,1.4-5.9,1.4c-1,0-2-0.1-3-0.4
		c2-1.3,3.6-3.1,4.7-5.1c2.1-1.2,3.8-2.8,5.1-4.7C34.6,25.4,34.7,26.4,34.7,27.5z M8.7,27.5c0-1,0.1-2,0.4-3c1.3,2,3.1,3.6,5.1,4.7
		c1.2,2.1,2.8,3.8,4.7,5.1c-1,0.2-1.9,0.4-3,0.4c-2.1,0-4.1-0.5-5.9-1.4C9.2,31.6,8.7,29.6,8.7,27.5z M8.7,16c0-2.1,0.5-4.1,1.4-5.9
		c1.8-0.9,3.8-1.4,5.9-1.4c1,0,2,0.1,3,0.4c-2,1.3-3.6,3.1-4.7,5.1c-2.1,1.2-3.8,2.8-5.1,4.7C8.8,18,8.7,17,8.7,16z M29,21.7
		c0,2.1-0.5,4.1-1.4,5.9c-1.8,0.9-3.8,1.4-5.9,1.4s-4.1-0.5-5.9-1.4c-0.9-1.8-1.4-3.8-1.4-5.9s0.5-4.1,1.4-5.9
		c1.8-0.9,3.7-1.4,5.9-1.4s4.1,0.5,5.9,1.4C28.5,17.6,29,19.6,29,21.7z M21.7,12.2c-1.2,0-2.4,0.2-3.6,0.4c1-1,2.2-1.9,3.6-2.6
		c1.3,0.7,2.5,1.5,3.6,2.6C24.1,12.4,22.9,12.2,21.7,12.2z M12.6,18.2c-0.3,1.1-0.4,2.3-0.4,3.6c0,1.2,0.2,2.4,0.4,3.6
		c-1.1-1-1.9-2.2-2.6-3.6C10.7,20.4,11.6,19.2,12.6,18.2z M18.2,30.8c1.1,0.3,2.3,0.4,3.6,0.4c1.2,0,2.4-0.2,3.6-0.4
		c-1,1-2.2,1.9-3.6,2.6C20.4,32.7,19.2,31.9,18.2,30.8z M30.8,25.3c0.3-1.1,0.4-2.3,0.4-3.6c0-1.2-0.2-2.4-0.4-3.6
		c1.1,1,1.9,2.2,2.6,3.6C32.7,23.1,31.8,24.3,30.8,25.3z M3,21.7c0-3.6,1.5-6.9,3.9-9.3c-0.3,1.1-0.4,2.3-0.4,3.6c0,2,0.4,4,1.1,5.7
		c-0.7,1.8-1.1,3.7-1.1,5.7c0,1.2,0.2,2.4,0.4,3.6C4.5,28.7,3,25.4,3,21.7z M21.7,40.5c-3.6,0-6.9-1.5-9.3-3.9
		c1.1,0.3,2.3,0.4,3.6,0.4c2,0,4-0.4,5.7-1.1c1.8,0.7,3.7,1.1,5.7,1.1c1.2,0,2.4-0.2,3.6-0.4C28.6,39,25.4,40.5,21.7,40.5z M36.5,31
		c0.3-1.1,0.4-2.3,0.4-3.6c0-2-0.4-4-1.1-5.7C36.6,19.9,37,18,37,16c0-1.2-0.2-2.4-0.4-3.6c2.4,2.4,3.9,5.7,3.9,9.3
		C40.5,25.4,39,28.7,36.5,31z"/>
	<g>
		<path class="st2" d="M21.7,3c3.6,0,6.9,1.5,9.3,3.9c-1.1-0.3-2.3-0.4-3.6-0.4c-2,0-4,0.4-5.7,1.1C19.9,6.9,18,6.5,16,6.5
			c-1.2,0-2.4,0.2-3.6,0.4C14.8,4.5,18.1,3,21.7,3z"/>
		<path class="st2" d="M34.7,27.5c0,2.1-0.5,4.1-1.4,5.9c-1.8,0.9-3.8,1.4-5.9,1.4c-1,0-2-0.1-3-0.4c2-1.3,3.6-3.1,4.7-5.1
			c2.1-1.2,3.8-2.8,5.1-4.7C34.6,25.4,34.7,26.4,34.7,27.5z"/>
		<path class="st2" d="M8.7,16c0-2.1,0.5-4.1,1.4-5.9c1.8-0.9,3.8-1.4,5.9-1.4c1,0,2,0.1,3,0.4c-2,1.3-3.6,3.1-4.7,5.1
			c-2.1,1.2-3.8,2.8-5.1,4.7C8.8,18,8.7,17,8.7,16z"/>
		<path class="st2" d="M12.6,18.2c-0.3,1.1-0.4,2.3-0.4,3.6c0,1.2,0.2,2.4,0.4,3.6c-1.1-1-1.9-2.2-2.6-3.6
			C10.7,20.4,11.6,19.2,12.6,18.2z"/>
		<path class="st2" d="M30.8,25.3c0.3-1.1,0.4-2.3,0.4-3.6c0-1.2-0.2-2.4-0.4-3.6c1.1,1,1.9,2.2,2.6,3.6
			C32.7,23.1,31.8,24.3,30.8,25.3z"/>
		<path class="st2" d="M21.7,40.5c-3.6,0-6.9-1.5-9.3-3.9c1.1,0.3,2.3,0.4,3.6,0.4c2,0,4-0.4,5.7-1.1c1.8,0.7,3.7,1.1,5.7,1.1
			c1.2,0,2.4-0.2,3.6-0.4C28.6,39,25.4,40.5,21.7,40.5z"/>
	</g>
	<path class="st1" d="M29,21.7c0,2.1-0.5,4.1-1.4,5.9c-1.8,0.9-3.8,1.4-5.9,1.4s-4.1-0.5-5.9-1.4c-0.9-1.8-1.4-3.8-1.4-5.9
		s0.5-4.1,1.4-5.9c1.8-0.9,3.7-1.4,5.9-1.4s4.1,0.5,5.9,1.4C28.5,17.6,29,19.6,29,21.7z"/>
	<path class="st3" d="M21.7,42.9c-5.5,0-10.7-3-13.4-7.8c-4.8-2.8-7.8-7.9-7.8-13.4S3.5,11,8.3,8.3c2.8-4.8,7.9-7.8,13.4-7.8
		s10.7,3,13.4,7.8c4.8,2.8,7.8,7.9,7.8,13.4s-3,10.7-7.8,13.4C32.4,40,27.2,42.9,21.7,42.9z"/>
	<g>
		<path class="st4" d="M34.7,16c0,1-0.1,2-0.4,3c-1.3-2-3.1-3.6-5.1-4.7c-1.2-2.1-2.8-3.8-4.7-5.1c1-0.2,1.9-0.4,3-0.4
			c2.1,0,4.1,0.5,5.9,1.4C34.2,11.9,34.7,13.9,34.7,16z"/>
		<path class="st4" d="M8.7,27.5c0-1,0.1-2,0.4-3c1.3,2,3.1,3.6,5.1,4.7c1.2,2.1,2.8,3.8,4.7,5.1c-1,0.2-1.9,0.4-3,0.4
			c-2.1,0-4.1-0.5-5.9-1.4C9.2,31.6,8.7,29.6,8.7,27.5z"/>
		<path class="st4" d="M21.7,12.2c-1.2,0-2.4,0.2-3.6,0.4c1-1,2.2-1.9,3.6-2.6c1.3,0.7,2.5,1.5,3.6,2.6
			C24.1,12.4,22.9,12.2,21.7,12.2z"/>
		<path class="st4" d="M18.2,30.8c1.1,0.3,2.3,0.4,3.6,0.4c1.2,0,2.4-0.2,3.6-0.4c-1,1-2.2,1.9-3.6,2.6
			C20.4,32.7,19.2,31.9,18.2,30.8z"/>
		<path class="st4" d="M3,21.7c0-3.6,1.5-6.9,3.9-9.3c-0.3,1.1-0.4,2.3-0.4,3.6c0,2,0.4,4,1.1,5.7c-0.7,1.8-1.1,3.7-1.1,5.7
			c0,1.2,0.2,2.4,0.4,3.6C4.5,28.7,3,25.4,3,21.7z"/>
		<path class="st4" d="M36.5,31c0.3-1.1,0.4-2.3,0.4-3.6c0-2-0.4-4-1.1-5.7C36.6,19.9,37,18,37,16c0-1.2-0.2-2.4-0.4-3.6
			c2.4,2.4,3.9,5.7,3.9,9.3C40.5,25.4,39,28.7,36.5,31z"/>
	</g>
</g>
</svg>
