<?xml version="1.0" encoding="utf-8"?>
<!-- Generator: Adobe Illustrator 27.4.0, SVG Export Plug-In . SVG Version: 6.00 Build 0)  -->
<svg version="1.1" id="Layer_1" xmlns="http://www.w3.org/2000/svg" xmlns:xlink="http://www.w3.org/1999/xlink" x="0px" y="0px"
	 width="43.5px" height="43.5px" viewBox="0 0 43.5 43.5" style="enable-background:new 0 0 43.5 43.5;" xml:space="preserve">
<style type="text/css">
	.st0{fill:#291B3C;}
	.st1{fill:#FFFFFF;}
	.st2{fill:#376478;}
	.st3{fill:none;stroke:#FFFFFF;stroke-miterlimit:10;}
	.st4{fill:#AD8893;}
</style>
<g>
	<path class="st0" d="M140.3,18.4v10.4"/>
	<path class="st0" d="M140.1,18.6v10.1"/>
</g>
<g>
	<path class="st1" d="M42.7,21.7c0-5.7-3.1-10.6-7.7-13.3c-2.6-4.6-7.6-7.7-13.3-7.7C16,0.7,11.1,3.9,8.5,8.5
		c-4.6,2.6-7.7,7.6-7.7,13.3c0,5.7,3.1,10.6,7.7,13.3c2.6,4.6,7.6,7.7,13.3,7.7c5.7,0,10.6-3.1,13.3-7.7
		C39.6,32.4,42.7,27.4,42.7,21.7z"/>
	<path class="st0" d="M42.7,21.7c0-5.7-3.1-10.6-7.7-13.3c-2.6-4.6-7.6-7.7-13.3-7.7C16,0.7,11.1,3.9,8.5,8.5
		c-4.6,2.6-7.7,7.6-7.7,13.3c0,5.7,3.1,10.6,7.7,13.3c2.6,4.6,7.6,7.7,13.3,7.7c5.7,0,10.6-3.1,13.3-7.7
		C39.6,32.4,42.7,27.4,42.7,21.7z M21.7,3c3.6,0,6.9,1.5,9.3,3.9c-1.1-0.3-2.3-0.4-3.6-0.4c-2,0-4,0.4-5.7,1.1
		C19.9,6.9,18,6.5,16,6.5c-1.2,0-2.4,0.2-3.6,0.4C14.8,4.5,18.1,3,21.7,3z M34.7,16c0,1-0.1,2-0.4,3c-1.3-2-3.1-3.6-5.1-4.7
		c-1.2-2.1-2.8-3.8-4.7-5.1c1-0.2,1.9-0.4,3-0.4c2.1,0,4.1,0.5,5.9,1.4C34.2,11.9,34.7,13.9,34.7,16z M34.7,27.5
		c0,2.1-0.5,4.1-1.4,5.9c-1.8,0.9-3.8,1.4-5.9,1.4c-1,0-2-0.1-3-0.4c2-1.3,3.6-3.1,4.7-5.1c2.1-1.2,3.8-2.8,5.1-4.7
		C34.6,25.5,34.7,26.4,34.7,27.5z M8.7,27.5c0-1,0.1-2,0.4-3c1.3,2,3.1,3.6,5.1,4.7c1.2,2.1,2.8,3.8,4.7,5.1c-1,0.2-1.9,0.4-3,0.4
		c-2.1,0-4.1-0.5-5.9-1.4C9.2,31.6,8.7,29.6,8.7,27.5z M8.7,16c0-2.1,0.5-4.1,1.4-5.9c1.8-0.9,3.8-1.4,5.9-1.4c1,0,2,0.1,3,0.4
		c-2,1.3-3.6,3.1-4.7,5.1c-2.1,1.2-3.8,2.8-5.1,4.7C8.8,18,8.7,17,8.7,16z M29,21.7c0,2.1-0.5,4.1-1.4,5.9c-1.8,0.9-3.8,1.4-5.9,1.4
		s-4.1-0.5-5.9-1.4c-0.9-1.8-1.4-3.8-1.4-5.9c0-2.1,0.5-4.1,1.4-5.9c1.8-0.9,3.7-1.4,5.9-1.4s4.1,0.5,5.9,1.4
		C28.5,17.6,29,19.6,29,21.7z M21.7,12.2c-1.2,0-2.4,0.2-3.6,0.4c1-1,2.2-1.9,3.6-2.6c1.3,0.7,2.5,1.5,3.6,2.6
		C24.1,12.4,22.9,12.2,21.7,12.2z M12.6,18.2c-0.3,1.1-0.4,2.3-0.4,3.6c0,1.2,0.2,2.4,0.4,3.6c-1.1-1-1.9-2.2-2.6-3.6
		C10.7,20.4,11.6,19.2,12.6,18.2z M18.2,30.8c1.1,0.3,2.3,0.4,3.6,0.4c1.2,0,2.4-0.2,3.6-0.4c-1,1-2.2,1.9-3.6,2.6
		C20.4,32.7,19.2,31.9,18.2,30.8z M30.8,25.3c0.3-1.1,0.4-2.3,0.4-3.6c0-1.2-0.2-2.4-0.4-3.6c1.1,1,1.9,2.2,2.6,3.6
		C32.7,23.1,31.8,24.3,30.8,25.3z M3,21.7c0-3.6,1.5-6.9,3.9-9.3c-0.3,1.1-0.4,2.3-0.4,3.6c0,2,0.4,4,1.1,5.7
		c-0.7,1.8-1.1,3.7-1.1,5.7c0,1.2,0.2,2.4,0.4,3.6C4.5,28.7,3,25.4,3,21.7z M21.7,40.5c-3.6,0-6.9-1.5-9.3-3.9
		c1.1,0.3,2.3,0.4,3.6,0.4c2,0,4-0.4,5.7-1.1c1.8,0.7,3.7,1.1,5.7,1.1c1.2,0,2.4-0.2,3.6-0.4C28.6,39,25.4,40.5,21.7,40.5z M36.5,31
		c0.3-1.1,0.4-2.3,0.4-3.6c0-2-0.4-4-1.1-5.7C36.6,20,37,18,37,16c0-1.2-0.2-2.4-0.4-3.6c2.4,2.4,3.9,5.7,3.9,9.3
		C40.5,25.4,39,28.7,36.5,31z"/>
	<g>
		<path class="st2" d="M21.7,3c3.6,0,6.9,1.5,9.3,3.9c-1.1-0.3-2.3-0.4-3.6-0.4c-2,0-4,0.4-5.7,1.1C19.9,6.9,18,6.5,16,6.5
			c-1.2,0-2.4,0.2-3.6,0.4C14.8,4.5,18.1,3,21.7,3z"/>
		<path class="st2" d="M34.7,27.5c0,2.1-0.5,4.1-1.4,5.9c-1.8,0.9-3.8,1.4-5.9,1.4c-1,0-2-0.1-3-0.4c2-1.3,3.6-3.1,4.7-5.1
			c2.1-1.2,3.8-2.8,5.1-4.7C34.6,25.5,34.7,26.4,34.7,27.5z"/>
		<path class="st2" d="M8.7,16c0-2.1,0.5-4.1,1.4-5.9c1.8-0.9,3.8-1.4,5.9-1.4c1,0,2,0.1,3,0.4c-2,1.3-3.6,3.1-4.7,5.1
			c-2.1,1.2-3.8,2.8-5.1,4.7C8.8,18,8.7,17,8.7,16z"/>
		<path class="st2" d="M12.6,18.2c-0.3,1.1-0.4,2.3-0.4,3.6c0,1.2,0.2,2.4,0.4,3.6c-1.1-1-1.9-2.2-2.6-3.6
			C10.7,20.4,11.6,19.2,12.6,18.2z"/>
		<path class="st2" d="M30.8,25.3c0.3-1.1,0.4-2.3,0.4-3.6c0-1.2-0.2-2.4-0.4-3.6c1.1,1,1.9,2.2,2.6,3.6
			C32.7,23.1,31.8,24.3,30.8,25.3z"/>
		<path class="st2" d="M21.7,40.5c-3.6,0-6.9-1.5-9.3-3.9c1.1,0.3,2.3,0.4,3.6,0.4c2,0,4-0.4,5.7-1.1c1.8,0.7,3.7,1.1,5.7,1.1
			c1.2,0,2.4-0.2,3.6-0.4C28.6,39,25.4,40.5,21.7,40.5z"/>
	</g>
	<path class="st1" d="M29,21.7c0,2.1-0.5,4.1-1.4,5.9c-1.8,0.9-3.8,1.4-5.9,1.4s-4.1-0.5-5.9-1.4c-0.9-1.8-1.4-3.8-1.4-5.9
		c0-2.1,0.5-4.1,1.4-5.9c1.8-0.9,3.7-1.4,5.9-1.4s4.1,0.5,5.9,1.4C28.5,17.6,29,19.6,29,21.7z"/>
	<path class="st3" d="M21.7,42.9c-5.5,0-10.7-3-13.4-7.8c-4.8-2.8-7.8-7.9-7.8-13.4c0-5.5,3-10.7,7.8-13.4c2.8-4.8,7.9-7.8,13.4-7.8
		c5.5,0,10.7,3,13.4,7.8c4.8,2.8,7.8,7.9,7.8,13.4c0,5.5-3,10.7-7.8,13.4C32.4,40,27.2,42.9,21.7,42.9z"/>
	<g>
		<path class="st4" d="M34.7,16c0,1-0.1,2-0.4,3c-1.3-2-3.1-3.6-5.1-4.7c-1.2-2.1-2.8-3.8-4.7-5.1c1-0.2,1.9-0.4,3-0.4
			c2.1,0,4.1,0.5,5.9,1.4C34.2,11.9,34.7,13.9,34.7,16z"/>
		<path class="st4" d="M8.7,27.5c0-1,0.1-2,0.4-3c1.3,2,3.1,3.6,5.1,4.7c1.2,2.1,2.8,3.8,4.7,5.1c-1,0.2-1.9,0.4-3,0.4
			c-2.1,0-4.1-0.5-5.9-1.4C9.2,31.6,8.7,29.6,8.7,27.5z"/>
		<path class="st4" d="M21.7,12.2c-1.2,0-2.4,0.2-3.6,0.4c1-1,2.2-1.9,3.6-2.6c1.3,0.7,2.5,1.5,3.6,2.6
			C24.1,12.4,22.9,12.2,21.7,12.2z"/>
		<path class="st4" d="M18.2,30.8c1.1,0.3,2.3,0.4,3.6,0.4c1.2,0,2.4-0.2,3.6-0.4c-1,1-2.2,1.9-3.6,2.6
			C20.4,32.7,19.2,31.9,18.2,30.8z"/>
		<path class="st4" d="M3,21.7c0-3.6,1.5-6.9,3.9-9.3c-0.3,1.1-0.4,2.3-0.4,3.6c0,2,0.4,4,1.1,5.7c-0.7,1.8-1.1,3.7-1.1,5.7
			c0,1.2,0.2,2.4,0.4,3.6C4.5,28.7,3,25.4,3,21.7z"/>
		<path class="st4" d="M36.5,31c0.3-1.1,0.4-2.3,0.4-3.6c0-2-0.4-4-1.1-5.7C36.6,20,37,18,37,16c0-1.2-0.2-2.4-0.4-3.6
			c2.4,2.4,3.9,5.7,3.9,9.3C40.5,25.4,39,28.7,36.5,31z"/>
	</g>
</g>
</svg>
